# xmcd
# 
# Track frame offsets:
#     150
#     29379
#     55974
#     79105
#     99163
#     138313
#     163140
#     181036
#     231496
#     259305
#     283374
#     301371
#     319996
# 
# Disc length: 4570
# 
# Revision: 3
# Processed by: cddbd v1.5.2PL0 Copyright (c) Steve Scherf et al.
# Submitted via: fre:ac v1.0.31
# 
DISCID=b811d80d
DTITLE=Weather Report - Forecast - Tomorrow -  Disc 3
DYEAR=2006
DGENRE=Jazz
TTITLE0=Dream Clock
TTITLE1=Three Views Of A Secret
TTITLE2=Port Of Entry (Live)
TTITLE3=Dara Factor Two
TTITLE4=Procession
TTITLE5=Plaza Real
TTITLE6=The Well
TTITLE7=D-Flat Waltz
TTITLE8=Domino Theory
TTITLE9=Predator
TTITLE10=Face On The Barroom Floor
TTITLE11=Indiscretions
TTITLE12=125th Street Congress (DJ Logic Remix)
EXTD=YEAR: 2006
EXTT0=
EXTT1=
EXTT2=
EXTT3=
EXTT4=
EXTT5=
EXTT6=
EXTT7=
EXTT8=
EXTT9=
EXTT10=
EXTT11=
EXTT12=
PLAYORDER=
